<svg id="horizontal" xmlns="http://www.w3.org/2000/svg" viewBox="0 0 1077.66 214.67"><defs><style>.cls-1{fill:#0052cc;}</style></defs><title>1-horizontal</title><g id="_1-horizontal" data-name="1-horizontal"><path class="cls-1" d="M25,0H258.34a27,27,0,0,1,27,27v0a23.67,23.67,0,0,1-23.67,23.67h-236A25.67,25.67,0,0,1,0,25v0A25,25,0,0,1,25,0Z"/><path class="cls-1" d="M25,82H258.33a27,27,0,0,1,27,27v0a23.67,23.67,0,0,1-23.67,23.67h-236A25.67,25.67,0,0,1,0,107v0A25,25,0,0,1,25,82Z"/><path class="cls-1" d="M25,164H258.33a27,27,0,0,1,27,27v0a23.67,23.67,0,0,1-23.67,23.67h-236A25.67,25.67,0,0,1,0,189v0a25,25,0,0,1,25-25Z"/><path class="cls-1" d="M390.5,1519.33v-208h33.84l113.75,147.11-18.2,4.19v-151.3H564v208H529.84L418.08,1371.1l16.5-4.19v152.41H390.5Z" transform="translate(-58.15 -1308.01)"/><path class="cls-1" d="M588.08,1519.33v-208H730.55V1349H632.16v47.18h92.7v37.69h-92.7v47.73h98.39v37.69H588.08Z" transform="translate(-58.15 -1308.01)"/><path class="cls-1" d="M819.79,1519.33V1349H766v-37.69H916.76V1349H863.87v170.28H819.79Z" transform="translate(-58.15 -1308.01)"/><path class="cls-1" d="M1023.48,1522.68a119.61,119.61,0,0,1-44.36-8.1,108.1,108.1,0,0,1-35.69-22.75,108.52,108.52,0,0,1-23.89-119.06,102.38,102.38,0,0,1,23.6-34.06,109.39,109.39,0,0,1,35.69-22.61,127.13,127.13,0,0,1,89.29,0,109.43,109.43,0,0,1,35.69,22.61,102.54,102.54,0,0,1,23.6,34.06,106.47,106.47,0,0,1,8.39,42.43,104.64,104.64,0,0,1-32.28,76.63,108.16,108.16,0,0,1-35.69,22.75A119.6,119.6,0,0,1,1023.48,1522.68Zm0-39.08a70.76,70.76,0,0,0,26.87-5,67.5,67.5,0,0,0,21.75-14.1,62.42,62.42,0,0,0,14.5-21.63,72.56,72.56,0,0,0,5.12-27.63,71.52,71.52,0,0,0-5.12-27.5,64.55,64.55,0,0,0-36.26-35.73,76.35,76.35,0,0,0-53.74,0,64.55,64.55,0,0,0-36.26,35.73,71.52,71.52,0,0,0-5.12,27.5,72.56,72.56,0,0,0,5.12,27.63,62.46,62.46,0,0,0,14.5,21.63,67.5,67.5,0,0,0,21.75,14.1A70.76,70.76,0,0,0,1023.48,1483.6Z" transform="translate(-58.15 -1308.01)"/></g></svg>