<svg xmlns="http://www.w3.org/2000/svg" viewBox="0 0 32 32" role="img" aria-label="WhatsApp">
  <circle cx="16" cy="16" r="16" fill="#008A45"/>
  <path fill="#FFF" d="M24.08 8.77A10.54 10.54 0 0 0 16.56 5.7c-5.8 0-10.53 4.72-10.53 10.53 0 1.85.49 3.67 1.41 5.27L6 27l5.66-1.48a10.5 10.5 0 0 0 4.9 1.24h.01c5.8 0 10.53-4.72 10.53-10.53 0-2.81-1.1-5.45-3.02-7.46Zm-7.52 16.2h-.01a8.8 8.8 0 0 1-4.49-1.23l-.32-.19-3.36.88.9-3.28-.21-.34a8.75 8.75 0 0 1-1.35-4.58c0-4.86 3.96-8.82 8.84-8.82 2.36 0 4.58.91 6.24 2.57a8.75 8.75 0 0 1 2.58 6.24c0 4.87-3.96 8.83-8.82 8.83Zm4.84-6.6c-.27-.14-1.6-.79-1.85-.87-.25-.09-.43-.14-.61.14-.18.27-.7.86-.86 1.04-.16.18-.32.2-.59.07-.27-.14-1.14-.42-2.17-1.35-.8-.71-1.34-1.58-1.5-1.85-.16-.28-.02-.42.12-.56.12-.12.27-.32.41-.48.13-.16.18-.27.27-.46.09-.18.04-.34-.02-.48-.07-.14-.61-1.47-.84-2.02-.22-.53-.44-.46-.61-.47l-.52-.01c-.18 0-.46.07-.7.34-.25.27-.95.93-.95 2.27s.98 2.63 1.11 2.81c.14.18 1.92 2.94 4.65 4.12.65.28 1.16.45 1.56.57.66.21 1.27.18 1.75.11.53-.08 1.6-.65 1.83-1.28.23-.62.23-1.15.16-1.27-.07-.11-.25-.18-.52-.32Z"/>
</svg>
