<svg id="iso" xmlns="http://www.w3.org/2000/svg" viewBox="0 0 285.33 214.67"><defs><style>.cls-1{fill:#f7fafc;}</style></defs><title>4-iso</title><g id="_4-iso" data-name="4-iso"><path class="cls-1" d="M25,0H258.34a27,27,0,0,1,27,27v0a23.67,23.67,0,0,1-23.67,23.67h-236A25.67,25.67,0,0,1,0,25v0A25,25,0,0,1,25,0Z"/><path class="cls-1" d="M25,82H258.33a27,27,0,0,1,27,27v0a23.67,23.67,0,0,1-23.67,23.67h-236A25.67,25.67,0,0,1,0,107v0A25,25,0,0,1,25,82Z"/><path class="cls-1" d="M25,164H258.33a27,27,0,0,1,27,27v0a23.67,23.67,0,0,1-23.67,23.67h-236A25.67,25.67,0,0,1,0,189v0a25,25,0,0,1,25-25Z"/></g></svg>